<?xml version="1.0" encoding="utf-8"?>
<!-- Generator: Adobe Illustrator 19.1.0, SVG Export Plug-In . SVG Version: 6.00 Build 0)  -->
<svg version="1.1" id="Livello_1" xmlns="http://www.w3.org/2000/svg" xmlns:xlink="http://www.w3.org/1999/xlink" x="0px" y="0px"
	 viewBox="0 0 840 420" style="enable-background:new 0 0 840 420;" xml:space="preserve">
<style type="text/css">
	.st0{fill:#004311;}
	.st1{fill:#FFFFFF;}
	.st2{clip-path:url(#SVGID_2_);}
	.st3{fill:#07601F;}
	.st4{fill:none;stroke:#FFFFFF;stroke-width:6.300000e-002;stroke-miterlimit:10;}
	.st5{fill:none;stroke:#FFFFFF;stroke-miterlimit:10;}
	.st6{clip-path:url(#SVGID_4_);}
</style>
<g>
	<defs>
		<rect id="SVGID_3_" x="-11.3" y="29.4" width="856.3" height="418.1"/>
	</defs>
	<clipPath id="SVGID_2_">
		<use xlink:href="#SVGID_3_"  style="overflow:visible;"/>
	</clipPath>
	<g class="st2">
		<path class="st1" d="M232.7,357.5v-3.9l0.3-0.3v1.8l-0.3-0.1v2.6l0.3-0.2v2.2l-0.3-0.1V357.5z M234.2,355.5l-0.4-0.1v-3.1l0.4-0.5
			V355.5z M233.2,355.2V353l0.5-0.5v2.8L233.2,355.2z M233.6,356.8v2.9l-0.5-0.1v-2.4L233.6,356.8z M234.2,359.8l-0.4-0.1v-3.2
			l0.4-0.3V359.8z M230.7,340.3c0,0,0.4-0.2,0.8-0.5v2.9l-0.8-0.9V340.3z M227.5,341.8l-0.8,0.9v-2.9c0.4,0.3,0.8,0.5,0.8,0.5V341.8
			z M225.5,357.5v2.1l-0.3,0.1v-2.2l0.2,0.2V355l-0.2,0.1v-1.8l0.3,0.3V357.5z M224,356.3l0.4,0.3v3.2l-0.4,0.1V356.3z M224,351.8
			l0.4,0.5v3.1l-0.4,0.1V351.8z M225.1,357.2v2.4l-0.5,0.1v-2.9L225.1,357.2z M224.6,355.3v-2.8l0.5,0.5v2.1L224.6,355.3z
			 M252.7,414v-2.5l-0.7-7l0.9-0.6l-2.2-1.8h-1v-6l1-0.9l-1.7-1c0,0-0.7-14.7-13.8-29.1v-2l1.2-1.6v-1.3l-1.7-0.4V356l0.3-0.3
			l-0.3-0.1v-4.1l0.6-0.7c0,0-2.2-1.5-3.2-5.5l0.6-1.5l-0.8-0.9v-3.3c0.5-0.6,0.8-1.4-1-2.4v-3.4l0.6-0.7l-0.6-0.6v-2l0.6-0.6
			l-0.6-0.5v-1.3l0.3-0.4l-0.3-0.4v-3.2v-0.5l-0.4-0.4v-2.9l0.4-0.6l-0.4-0.6V316l0.3-0.7v-0.5l-0.3-0.5l-0.2-1.3c0,0,0.4-0.4,0-0.8
			c0-0.8,0-2.2,0-2.2s0.4-0.5,0-1l-0.2-0.9l0.3-0.7l-0.7-1l-0.4-2.5v0v0l0,0v0l-0.4,2.5l-0.7,1l0.3,0.7l-0.2,0.9c-0.5,0.4,0,1,0,1
			s0,1.5,0,2.2c-0.4,0.4,0,0.8,0,0.8l-0.2,1.3l-0.3,0.5v0.5l0.3,0.7v3.2l-0.4,0.6l0.4,0.6v2.9l-0.4,0.4v0.5v3.2l-0.3,0.4l0.3,0.4
			v1.3l-0.6,0.5l0.6,0.6v2l-0.6,0.6l0.6,0.7v3.4c-1.7,0.9-1.5,1.8-1,2.4v3.3l-0.8,0.9l0.6,1.5c-1,4.1-3.2,5.5-3.2,5.5l0.6,0.7v4.1
			l-0.4,0.1l0.4,0.3v3.9l-1.8,0.4v1.3l1.2,1.6v2c-13.1,14.4-13.8,29.1-13.8,29.1l-1.7,1l1,0.9v6h-1l-2.2,1.7l0.9,0.6l-0.7,7v2.5
			l-1.1,1.6v9.9h24.6v0h24.6v-9.9L252.7,414z"/>
		<path class="st1" d="M459.1,397.6v-5.3l-1.3,0.1v-2.7l-23.1,0.1l0.2-27.6l-1.1,0v-1.1h-1.3v2h-3.2v-2H426v-7.6l-2.6,0v-9.9h-1.2
			l-1.1,0.9l0,1.3l1-0.8v15.3l-0.6,0.7v4l-1.3,0v1l1.3,0v1.5l-1.3,0v1.3h1.3v1.3h-1.3v1l1.3,0v1.6h-1.3v1l1.3,0v1.7l-1.3,0v0.9
			l1.3,0v1.5h-1.3v1.1h1.3v1.5h-1.3v1.1l1.3,0v1.5h-1.3v1.2l1.3,0v1.4h-1.3v1.1l1.3,0v1.4l-1.3,0v1.3h1.3v1.4l-1.3,0v1.1l1.3,0v1.6
			l-1.3,0v1.1l1.3,0v2l-1.3,0v1.3h1.3v1l-2,0v0.6l-1.8,0.4h-1.4l-1.6-0.2l-1.2-0.1c0,0-1,0.1-1.2,0c0,0,0,0,0,0h-3.7
			c-0.2,0-0.6,0.1-1.1,0.1c-0.1,0-0.2,0-0.3,0v25.6h55.2v-27.9H459.1z"/>
		<path class="st1" d="M592,425.5H403.1v-23.8h4.5l0.8-0.6v-0.7h0.3v0.7l1.2,0.6v0.6h0.8v0.6h1.7v-1.2l0.6-0.6h1.5v1.4l0.3,0.5h0.8
			l0.7-0.5V401h1.7v-1.6h3.9v1.7h1.3l0.6-0.6h1.1v1h0.6v1.1h0.6v-2.9h3.4v1.1h1v1.4h2.2v-3.4h2.7v-3.2l1.7-0.6h4.6v-1h7.9v1.7l1,0.2
			c0,0-0.4,1.1,0,0.8s2.3,0.5,2.3,0.5v1.8h1.9v6h2.2v0.3h0.6v0.2h0.8v-11.2h7.2v-7.4l5.8,0.5v3.1l1.1-0.4v-0.8l0.3-0.6l0.5,0.6v0.8
			l2.3,1.2v4.2l3.7-1.4l0.4,0.4v5.7h2.2v0.5h1.5v-1.4h4.5v1.5h1.1v1.6h0.4v0.3h1.3v-1.8h1.9v0.8h0.5v0.9h1.5v-0.6h0.6v-0.5h0.4v-0.3
			l1-0.4v-0.8h0.3v0.8l0.8,0.3l4.5-0.2v-0.6l2.3-0.4v-0.5h0.5v0.5l2.1,0.5v0.5h0.6l0.8-0.6v-5.4l0.8-0.6h1l1.9,0.4v2.2l1.5,0.6h1
			v0.5h-1v0.8h0.6l3-1.1v-2.3l3.9,1.2v-0.9h1.2l0.4-0.3h0.4l0.5,0.3h1.4v0.6h1.2v2.3l0.3,0.3v0.5h0.9v-0.5l1.7-1.2l1.7,1.2v0.5h0.9
			v0.6h0.5v-3h2.6v0.3l1.8,0.9v0.9c0,0,2,0,4,0c1.8,2.5,5.6,1.7,5.6,1.7c0.2,0.6-1.7,1.2-1.7,1.2v0.6l0.5,0.4l3.2,6h43.4L592,425.5z
			"/>
		<path class="st1" d="M546.1,397.9L546.1,397.9c0,0-6.1-0.5-13.2-0.6v-4.2l-2.7-1c0,0-1.2-3.2-2.6-5.2s-2.4-2.9-2.4-2.9v-2.2h-0.6
			v-1.9h-0.8c0,0-0.4-1.2-0.9-1.8c-0.5-0.6-0.9-1.3-0.9-1.3v-2.2h-0.7v-2.6h-0.6v-3.9h-0.6v2h-0.6v2h-0.6v4.8c0,0-0.7,0.7-1.2,1.3
			c-0.5,0.6-1.1,1.8-1.1,1.8h-1v1.9h-0.6v2.2c0,0-1,0.9-2.4,2.9c-1.4,2-2.6,5.2-2.6,5.2l-2.8,1v4.1c-0.8,0.1-1.6,0.1-2.2,0.2v21.5
			h43.9v-21L546.1,397.9z"/>
		<path class="st1" d="M591.7,385l-0.2-0.1v-1.7c0,0,0-0.4,0.1-0.4c0.1,0,0.1,0.3,0.1,0.3V385z M591.7,394.7l-0.2-0.1v-1.5
			c0,0,0-0.3,0.1-0.3c0.1,0,0.1,0.3,0.1,0.3V394.7z M591.2,389.8l-0.5-0.1V388c0,0,0-0.4,0.2-0.4c0.2,0,0.3,0.3,0.3,0.3L591.2,389.8
			z M591.2,399.6l-0.5-0.1v-1.6c0,0,0-0.4,0.2-0.3c0.2,0,0.3,0.3,0.3,0.3L591.2,399.6z M589.9,384.5h-0.8v-1.9c0,0,0.1-0.3,0.4-0.3
			c0.3,0,0.4,0.3,0.4,0.3V384.5z M589.9,394.4h-0.8v-1.7c0,0,0.1-0.3,0.4-0.3c0.3,0,0.4,0.3,0.4,0.3V394.4z M588.2,389.3h-0.7v-1.7
			c0,0,0.2-0.3,0.4-0.2c0.2,0,0.3,0.3,0.3,0.3V389.3z M588.2,399.5h-0.7v-1.6c0,0,0.2-0.3,0.4-0.3c0.2,0,0.3,0.3,0.3,0.3V399.5z
			 M585.7,384.5v-1.6c0,0,0-0.5,0.4-0.5c0.3,0,0.3,0.3,0.3,0.3l0,1.8L585.7,384.5z M585.7,394.4v-1.5c0,0,0-0.5,0.4-0.5
			c0.3,0,0.3,0.3,0.3,0.3l0,1.7L585.7,394.4z M584.7,389.4h-0.7v-1.5c0,0,0-0.4,0.4-0.4c0.3,0,0.3,0.3,0.3,0.3V389.4z M584.7,399.6
			h-0.7v-1.5c0,0,0-0.4,0.4-0.4c0.3,0,0.3,0.3,0.3,0.3V399.6z M583.5,383.1v1.6l-0.5,0.2v-1.6c0,0,0-0.5,0.3-0.5
			C583.5,382.8,583.5,383.1,583.5,383.1 M581.6,392.6h-1v-1.8h1V392.6z M581.6,398.6h-1.1v-2.2c0,0,0.2-0.4,0.6-0.3
			c0.4,0,0.5,0.4,0.5,0.4V398.6z M578.8,392.6h-1v-1.8h1V392.6z M578.8,398.6h-1.1v-2.2c0,0,0.2-0.4,0.6-0.3c0.4,0,0.5,0.4,0.5,0.4
			V398.6z M576,398.6h-1.1v-2.2c0,0,0.2-0.4,0.6-0.3c0.4,0,0.5,0.4,0.5,0.4V398.6z M575.1,390.8h1v1.8h-1V390.8z M573.2,392.6h-1
			v-1.8h1V392.6z M573.2,398.6h-1.1v-2.2c0,0,0.2-0.4,0.6-0.3c0.4,0,0.5,0.4,0.5,0.4V398.6z M570.5,398.6h-1.1v-2.2
			c0,0,0.2-0.4,0.6-0.3c0.4,0,0.5,0.4,0.5,0.4V398.6z M569.5,390.8h1v1.8h-1V390.8z M567.7,398.6h-1.1v-2.2c0,0,0.2-0.4,0.6-0.3
			c0.4,0,0.5,0.4,0.5,0.4V398.6z M566.7,390.8h1v1.8h-1V390.8z M564.9,398.6h-1.1v-2.2c0,0,0.2-0.4,0.6-0.3c0.4,0,0.5,0.4,0.5,0.4
			V398.6z M563.9,390.8h1v1.8h-1V390.8z M562.1,398.6H561v-2.2c0,0,0.2-0.4,0.6-0.3c0.4,0,0.5,0.4,0.5,0.4V398.6z M561.1,390.8h1
			v1.8h-1V390.8z M559.4,398.6h-1.1v-2.2c0,0,0.2-0.4,0.6-0.3c0.4,0,0.5,0.4,0.5,0.4V398.6z M558.3,390.8h1v1.8h-1V390.8z
			 M556.9,383v1.8l-0.3-0.2v-1.9c0,0,0-0.2,0.2-0.2C556.9,382.6,556.9,383,556.9,383 M555.8,389.3l-0.7-0.1v-1.9c0,0,0-0.2,0.3-0.2
			c0.3,0,0.3,0.3,0.3,0.3V389.3z M554.3,384.2h-0.8v-1.9c0,0,0.1-0.3,0.4-0.3c0.3,0,0.4,0.3,0.4,0.3V384.2z M554.2,394h-0.8v-1.9
			c0,0,0.1-0.3,0.4-0.3c0.3,0,0.4,0.3,0.4,0.3V394z M552.4,389.1h-0.7v-1.8c0,0,0.2-0.3,0.4-0.3c0.2,0,0.3,0.3,0.3,0.3V389.1z
			 M552.4,400.4h-1.2v-3.2c0,0,0.3-0.5,0.7-0.5c0.4,0,0.5,0.5,0.5,0.5V400.4z M550,384.2v-1.6c0,0,0.1-0.5,0.4-0.5
			c0.4-0.1,0.3,0.3,0.3,0.3l0,1.8L550,384.2z M549.9,394v-1.6c0,0,0-0.5,0.4-0.5c0.4,0,0.3,0.3,0.3,0.3v1.8L549.9,394z M549.2,389.2
			l-0.4,0.1v-1.8c0,0,0.1-0.5,0.2-0.4c0.2,0,0.2,0.4,0.2,0.4V389.2z M591.5,381.1l-1.1-0.3l-1.6-0.2l-1.8-0.1l-1.8,0.1l-1.6,0.3
			l-0.8,0.4v6.7l-25.6,0v-9.9l-1-0.3h-0.4v1.1l-1-0.2v-1.2l-1.8-0.1v1.1h-1.4v-1l-0.3-0.3l-1.5,0.3v0.8l-0.8,0.3v-0.8h-0.6l-0.7,0.5
			v31H558l0-3.1c0,0,0.3-0.8,1.1-0.7c0.9,0,1.1,0.7,1.1,0.7v3.1h3.3v-5c0,0,0.3-1.8,2.3-1.8c1.7,0,2.1,1.8,2.1,1.8l0,5h3.8l0-5
			c0,0,0.5-1.8,2.2-1.8c2,0,2.4,1.8,2.4,1.8l0,5h15.6v-28.1L591.5,381.1z"/>
		<path class="st1" d="M689.8,412.4H689v-0.3h-0.6v-0.4h-2v-6.9h-1.7v-2.1c0,0-1.7-1-2.1-0.6c-0.4,0.3,0-1,0-1l-0.9-0.3v-2h-7.2v1.1
			h-4.2l-1.6,0.7v3.7h-2.5v3.9h-2v-1.6h-0.9v-1.2h-3.2v3.4h-0.6v-1.2h-0.6v-1.2h-1l-0.6,0.7h-1.2v-1.9h-3.6v1.8h-1.5v1.9l-0.6,0.5
			h-0.7l-0.3-0.5v-1.6h-1.4l-0.5,0.7v1.4h-1.5v-0.7h-0.7V408l-1.1-0.7v-0.8h-0.2v0.8l-0.7,0.6h-9.1v27.4l54.8,0.2"/>
		<path class="st1" d="M701.3,408.5c3.2,0.5,62.6-28.3,62.6-28.3 M782.4,386.5l12,10.7l27.1,20.1"/>
		<path class="st4" d="M701.3,408.5c3.2,0.5,62.6-28.3,62.6-28.3"/>
		<polyline class="st4" points="782.4,386.5 794.4,397.3 821.4,417.4 		"/>
		<path class="st5" d="M747.6,417.4c0,0,10.2-43.7,25.9-41.6c11.4,1.5,13.5,34.8,13.5,34.8"/>
		<path class="st4" d="M783.6,387.1l29.3,33.1 M782.7,387.1l21.8,31.3 M782.7,387.1l14.3,29.6 M794.4,397.3l23.2,21.5 M775,415.2
			l9.4-20.8 M764.9,411.8l19.5-18.6 M762.1,411.2l20.8-23.5 M735.9,416l17-15.6 M742.8,415.3l38.6-31.5 M741,414.4l38.4-34.2
			 M749.6,410.1l7.2,4.3 M756.8,391.2l21-13.4 M751.6,404.9l10.5,6.3 M753.5,399l25.5,15.5 M767.2,377.4l15.8,10.3 M763.4,380.4
			l54.4,38.6 M757.8,389.1l46.7,29.3 M755.3,394.4l29.3,17.4 M723.6,411.1l35.3-24 M725.5,411.8l30.8-19.7 M726.6,412.2l27.9-17.2
			 M706,410.4l54.5-25.8l52.4,35.6"/>
		<path class="st1" d="M832.8,414.4c-7.4,0.4-16.1,4.9-21.6,5.7c-5.7,0.8-7.6-4.2-10-3.9c-11.6,1.5-12.1-8.4-15.6-5.8
			c-14.2,10.5-19.4-2.6-25.6,0.7c-0.7,0.4-7,6.5-11.6,6.1c-3.6-0.3-6.4-3.4-7.9-3.5c-2.4-0.2-2.5,2.4-5.2,1.5
			c-3.9-1.3-11.7-5.5-16-5.6c-4.2-0.1-6.6,2.4-10.2,1.7c-2.1-0.4-4.6-2.9-7.9-3.4c-3.3-0.5-3.7-1.7-6.3-1.7c-2.5,0-4.5,2.4-4.5,2.4
			l-1.6,1.2v15.7h165.4C850.2,425.6,843.1,413.8,832.8,414.4"/>
		<path class="st1" d="M127,382.8c-5.1-7-13.7-11.6-15.7-12.5c-5.1-2.3-3.7-3.7-5.5-4.1l-12-2.5l-0.3-1.9l-6.1-0.1l0-4l-0.6-2.4V354
			l-0.9,0v1.7l-0.3,2.1v4.1h-0.7l-1-1.5v-3c0,0,0-1.4-0.3-2.4c-0.4-1-2-2.1-2-2.1v-1.7l-0.6-0.6l-0.6,0.6v1.7c0,0-1.2,0.8-1.7,1.8
			c-0.5,1-0.4,2.9-0.4,2.9v2.8l-1.3,1.6h-0.8v-4.5l-0.6-2v-1.5h-0.3v1.5l-0.9,1.9v4.4h-1l-1.2,2.3l-13.9,3.5
			c-1.5,1.1-2.3,3.9-3.8,4.7c-1.5,0.9-6.4,1.3-9.5,1.7c-3,0.4-4.2,0.6-8.5,2.4c-4.4,1.7-6.1,1.9-9.9,2.6c-3.8,0.6-1.1,1-4.3,2.3
			c-3.2,1.3-5.4,2-7.5,3c-2.1,1.1-0.8,3.2-2.7,3.7c-1.9,0.4,1.2,1.6-3.7,3.3c-4.9,1.7-3.5,3.6-7.9,5.2c-4.4,1.5-7.4,6.2-7.4,6.2V425
			h158.3C151.6,425,133.4,391.6,127,382.8"/>
		<path class="st1" d="M186.4,395.6l-5.9-3.8v-1.8l-0.1-0.4l-0.5-0.5l-1.3,0v1.4h-0.7l-0.5,1.7l-8.6-0.4v-2.6h-1l0-5.8l-2.5-2.1
			l-0.5-1.8h-1.1l-0.9,1.6l-3.1,1.6v5.5c0,0-0.3,0-2.9,1c-2.6,1-3.7,0.5-4.1,1.3c-0.4,0.8-0.3,1.5-1.9,1.9c-1.2,0.3-1.8,0.4-3.3,1.1
			c-1.5,0.6-6.2,2.3-8.8,2c-2.3-0.2-5-0.4-7-1.4v1c0,10.8-13.4,32.2-13.4,43h73.4l-0.2-42.2C190.9,395.6,186.4,395.6,186.4,395.6"/>
		<path class="st1" d="M186.1,398.7h4.4l0.5-0.3l0.4,0.3v0.7h1.1v-8.8h0.4l1.4-1l0.5,0.4l0.4,0.2v0.3h1.6v7.7h0.7l1.9,0.3l0.2,0.1
			l1-3.3v-1.7h3v-0.4h2v2.4l1.1,3.3v-5.8h0.6v-0.9h0.5v-1.6h0.3v-1h0.6l1.1-0.5v-2h0.3v2l1.2,0.5h0.5v1.1h0.3v1.5h1v2.2
			c0,0,4.3-1.1,6.4,0.4h0.9v-1.8h3.2v-0.4h1.7l0.8-0.6v1.3h0.9l0.2-0.5l0.3,0.5h0.7v0.6h1v-0.2h0.5v-0.4h0.6c0,0,3.9,0.3,4.7,1.6
			h1.9l0.6-0.6v-0.7c0,0-2.3-0.7-2.1-1.5c0,0,4.6,1.1,6.7-2.2c2.3,0,4.8,0,4.8,0V389l2.2-1.1v-0.4h3.1v3.9h0.6v-0.8h1v-0.7l2-1.5
			l2,1.5v0.7h1v-0.7l0.3-0.4v-3h1.5v-0.7h1.7l0.6-0.4h0.5l0.5,0.4h1.5v1.2l4.7-1.6v3l3.6,1.4h0.8v-1h-1.2v-0.6h1.2l1.8-0.7v-2.8
			l2.3-0.5h1.2l1,0.7v7l0.9,0.7h0.8v-0.7l2.5-0.6v-0.6h0.6v0.6l2.8,0.5v0.8l5.4,0.2l0.9-0.4v-1h0.4v1l1.2,0.5v0.4h0.5v0.6h0.7v0.8
			h1.7v-1.2h0.6v-1h2.3v2.3h1.6v-0.4h0.5v-2.1h1.4v-2h5.4v1.8h1.8v-0.6h2.6v-7.3l0.5-0.5l4.4,1.7v-5.4l2.8-1.6v-1.1l0.6-0.8l0.4,0.8
			v1l1.4,0.5v-4l6.9-0.6v9.5h14.3l0.3,14.4h1l-5-0.3h-0.2l1-0.4h2.7v-7.7h1.3v-2.3c0,0,2.2-1.1,2.7-0.7c0.5,0.4,0-1.1,0-1.1l1.2-0.3
			v-2.2h9.4v1.3h5.6l2.1,0.8v4.1h3.2v4.4h2.6v-1.8h1.2v-1.4h4.1v3.8h0.7v-1.4h0.7v-1.3h1.3l0.8,0.7h1.5v-2.1h4.7v2h2v2.1l0.8,0.6
			h0.9l0.4-0.6v-1.8h1.8l0.7,0.7v1.5h2v-0.8h0.9v-0.7l1.5-0.8v-0.9h0.3v0.9l1,0.7h5.4v30.6H186.1V398.7z"/>
		<path class="st1" d="M674.8,425.6v-19.4h-8l-0.4-0.2l-0.3,0.2v0.6h-0.9v-2h-0.3l-1.2-0.8l-0.4,0.3l-0.3,0.2v0.3h0.3v1.1h-2.2
			l-1.6,0.3l-2.1,0.1h-0.8v-1.3h-0.6v-0.3h-1.7v1.9h-0.9V402h-0.5v-0.7h-0.4v-1.2h-0.3v-0.8h-0.5l-0.9-0.4v-1.5h-0.2v1.5l-1,0.4
			h-0.4v0.8h-0.3v1.2H648v1.7c0,0-3.6-0.8-5.3,0.3h-0.8V402h-2.7v-0.3h-1.4l-0.6-0.5v1h-0.7l-0.2-0.4l-0.2,0.4h-0.6v0.5h-0.9v-0.2
			h-0.4v-0.3h-0.5c0,0-3.2,0.3-3.9,1.2h-1.6l-0.5-0.4v-0.6c0,0,1.9-0.5,1.7-1.2c0,0-3.8,0.8-5.6-1.7c-1.9,0-4,0-4,0v-0.9l-1.8-0.9
			v-0.3h-2.6v3h-0.5v-0.6h-0.9v-0.5l-1.7-1.2l-1.7,1.2v0.5h-0.9v-0.5l-0.3-0.3v-2.3h-1.2v-0.6h-1.4l-0.5-0.3h-0.4l-0.4,0.3h-1.2v0.9
			l-3.9-1.2v2.3l-3,1.1h-0.6v-0.8h1V398h-1l-1.5-0.6v-2.1l-1.9-0.4h-1l-0.8,0.6v5.4l0.4,24.9L674.8,425.6z"/>
	</g>
</g>
</svg>
